# xmcd
#
# Track frame offsets:
#	150
#	22302
#	39120
#	64912
#	85517
#	99732
#	120197
#	136340
#	161785
#	182535
#	199650
#	223830
#	240232
#	257745
#	273937
#	293800
#	308335
#
# Disc length: 4468 seconds
#
# Revision: 3
# Processed by: cddbd v1.5.1PL2 Copyright (c) Steve Scherf et al.
# Submitted via: audiograbber 1.81.03
#
DISCID=e3117211
DTITLE=CESARIA EVORA - BEST OF
DYEAR=1999
DGENRE=Ballad
TTITLE0=Besame Mucho
TTITLE1=Sodade
TTITLE2=Luiza
TTITLE3=Tudo Tem Se Limite
TTITLE4=Sabine Largam'
TTITLE5=Miss Perfumado
TTITLE6=Cinturao Tem Mele
TTITLE7=Vida Tem Um So Vida
TTITLE8=Papa Joachim Paris
TTITLE9=Petit Pays
TTITLE10=Cize
TTITLE11=Mar Azul
TTITLE12=Nha Cancera Ka Tem Medida
TTITLE13=Sangue De Beirona
TTITLE14=Angola
TTITLE15=Partida
TTITLE16=Sodade 
EXTD=
EXTT0=
EXTT1=
EXTT2=
EXTT3=
EXTT4=
EXTT5=
EXTT6=
EXTT7=
EXTT8=
EXTT9=
EXTT10=
EXTT11=
EXTT12=
EXTT13=
EXTT14=
EXTT15=
EXTT16=
PLAYORDER=
